<?xml version="1.0" encoding="iso-8859-1"?>
<!-- Generator: Adobe Illustrator 19.0.0, SVG Export Plug-In . SVG Version: 6.00 Build 0)  -->
<svg version="1.1" id="Layer_1" xmlns="http://www.w3.org/2000/svg" xmlns:xlink="http://www.w3.org/1999/xlink" x="0px" y="0px"
	 viewBox="0 0 227.935 227.935" style="enable-background:new 0 0 227.935 227.935;" xml:space="preserve">
<g>
	<path style="fill:#8CC63F;" d="M211.301,27.678c10.221,5.913,20.901,22.23,14.896,33.688c-1.375,2.658-4.538,2.567-6.463,1.008
		c-2.154,0.321-4.446,0.642-6.692,0.642c-0.642,0-1.329-0.046-1.971-0.092c-1.146-0.092-2.154-0.779-2.842-1.696
		c-0.825-0.367-1.604-1.054-2.154-2.154c-14.438-26.676-71.181-19.205-96.161-18.517c-28.004,0.826-58.438-0.824-82.73,14.393
		c0.046,0.642,0,1.283-0.413,1.879c-1.788,2.796-4.538,3.071-7.517,3.117c-0.412,0.046-0.871,0.046-1.283,0.046
		c-3.346,0.092-6.875,0.229-10.129-0.504c-1.192-0.275-1.833-1.146-2.063-2.108c-0.229-0.275-0.367-0.642-0.458-1.008
		C-3.434,5.907,100.794,16.495,127.47,17.595c18.838,0.825,37.584,2.475,56.331,4.492C192.83,23.003,203.189,22.957,211.301,27.678z
		"/>
	<path style="fill:#8CC63F;" d="M224.685,175.22c-3.025,17.921-15.951,28.738-33.505,32.038c-26.217,4.904-55.552,3.3-82.182,3.713
		c-29.334,0.413-103.632,9.717-104.045-36.668c0-1.146,0.596-1.971,1.375-2.475c0.275-0.504,0.779-0.917,1.604-1.054
		c2.108-0.367,4.354-0.779,6.6-1.146c3.942-0.596,7.975-0.962,11.688-0.321c1.467,0.229,2.246,1.375,2.383,2.658
		c18.013,20.58,51.472,17.096,76.91,17.142c24.934,0.046,81.219,4.95,95.657-19.617c0.962-1.65,2.567-1.925,3.942-1.467
		c2.063-0.871,4.125-1.375,6.234-1.604c3.346-0.275,6.783,0.183,10.267,1.1c1.558,0.412,2.567,2.154,2.108,3.713
		c-0.046,0.183-0.092,0.367-0.137,0.55C224.41,172.608,224.914,173.753,224.685,175.22z"/>
	<path style="fill:#8CC63F;" d="M218.635,158.72c-2.658,0.229-5.317,0.504-7.929,0.733c-0.275,0.046-0.504,0.046-0.779,0.092
		c-0.871,0.046-1.787-0.229-2.612-0.688c-0.825-0.137-1.513-0.688-1.833-1.65c-0.688-0.917-1.146-2.063-1.008-3.163
		c0.046-0.642,0.092-1.283,0.138-1.925c-3.942-26.126-4.125-52.893-3.988-79.248c0-0.092,0-0.138,0-0.229
		c0-2.888,2.338-5.088,5.133-5.179c2.475-0.092,4.95-0.137,7.425-0.229c1.65-0.046,3.254-0.092,4.904-0.137
		c2.842-0.092,5.179,2.475,5.225,5.225c0.321,26.997,0.596,53.947,0.779,80.944C224.089,156.474,221.522,158.491,218.635,158.72z"/>
	<path style="fill:#8CC63F;" d="M189.805,67.875c3.025,0,4.813,2.383,4.813,4.95c0,0.825-0.183,1.696-0.55,2.475
		c-7.563,15.951-15.171,31.901-22.871,47.806c0.825,9.671,1.742,19.251,3.3,28.876c0.55,3.392-1.375,6.463-5.042,6.6
		c-9.992,0.367-16.363-0.092-16.592-10.909c-0.183-7.792-0.092-15.905,0.55-23.88c-4.492-7.15-6.646-15.905-9.579-23.834
		c-3.208-8.663-6.509-17.28-9.029-26.217c-0.504-0.458-0.871-1.054-1.008-1.696c-0.275-1.421,0.367-2.979,2.108-3.529
		c8.479-2.704,14.575-5.088,18.471,3.942c2.979,6.967,6.325,14.117,9.259,21.359c2.567-7.838,5.5-16.363,9.809-22.276
		C177.338,66.225,183.709,67.875,189.805,67.875z"/>
	<path style="fill:#8CC63F;" d="M121.74,155.695c0.642,1.421,0.596,2.704-0.183,4.217c-0.733,1.283-2.475,2.429-3.988,2.292
		c-3.529-0.367-7.196-0.504-10.588-1.421c-2.108-0.55-2.796-2.842-2.108-4.538c-0.092-0.183-0.183-0.367-0.229-0.596
		c-2.842-10.404-3.942-21.68-4.263-33.23c-0.458-17.417,0.917-35.384,0.825-51.61c0-2.796,2.292-4.767,4.95-4.904
		c4.95-0.275,9.579-0.917,14.438,0.092c1.604,0.321,3.117,1.879,3.483,3.438c0.275,1.192,0.458,2.429,0.55,3.667
		c1.329,11-1.604,23.422-2.154,34.33c-0.688,14.575-0.779,29.105-0.596,43.68c0.412,0.871,0.55,1.971,0.229,3.117
		C121.97,154.732,121.878,155.19,121.74,155.695z"/>
	<path style="fill:#8CC63F;" d="M95.844,161.836c2.246,3.85-0.55,10.313-3.896,12.65c-4.446,3.071-10.084,0.779-14.255-1.65
		c-1.879-1.1-4.309-2.888-5.546-4.996c-11.459,1.008-24.338-7.15-30.618-15.721c-7.059-9.763-11-31.488-9.029-50.876
		c1.88-18.288,9.03-34.513,23.697-36.576c4.446-1.604,9.579-1.558,15.309,0.733c16.409,6.463,19.526,26.172,20.671,41.664
		c0.321,4.309,0.825,9.717,1.008,15.538c0.504,12.879-0.275,27.73-6.738,36.851c1.192,0,2.567-0.412,3.392-0.458
		C92.223,158.811,94.606,159.682,95.844,161.836z M68.206,118.385c0.229-6.784,2.933-20.259,0.229-26.492
		c-6.371-14.805-6.279,6.05-6.554,9.763c-0.367,4.584-0.458,9.213-0.504,13.796c-0.046,4.492-1.512,20.855,1.788,29.105
		c0.917-0.183,1.925-0.413,2.979-0.733C67.747,135.482,67.931,126.865,68.206,118.385z"/>
	<path style="fill:#8CC63F;" d="M20.721,68.563c3.3-0.321,5.133,3.254,4.583,6.004c-0.779,3.804-0.092,7.471-0.458,11.275
		c-0.275,2.658-2.063,4.217-4.492,4.217c-0.321,0-0.642-0.046-0.962-0.092c-3.529-0.504-7.471-0.596-10.817-1.879
		c-0.78-0.274-1.375-0.87-1.742-1.558c-0.596-0.367-1.146-0.825-1.467-1.513c-1.925-3.758-1.238-8.525-0.321-12.513
		c0.504-2.017,2.658-3.667,4.721-3.575c3.392,0.138,6.829,0,10.175-0.321C20.217,68.609,20.446,68.609,20.721,68.563z"/>
	<path style="fill:#8CC63F;" d="M25.121,101.06c0,0.367-0.046,0.733-0.137,1.146c-3.85,18.38-3.896,35.751-3.713,54.314
		c0.046,3.529-2.292,4.675-4.675,4.354c-0.458,0.367-0.962,0.688-1.558,0.825c-0.642,0.137-1.192,0.275-1.696,0.412
		c-3.392,0.779-4.721,0.779-9.717-0.367c-2.017-0.504-3.713-2.704-3.621-4.767c0.917-17.875-0.825-39.28,4.263-56.835
		C3.35,98.264,3.9,95.88,6.054,95.468c1.054-0.963,2.75-1.008,3.621,0.092c3.483,0.275,6.921,0.504,10.404,0.596
		c0.092,0,0.229,0,0.321,0C23.242,96.201,25.121,98.447,25.121,101.06z"/>
</g>
<g>
</g>
<g>
</g>
<g>
</g>
<g>
</g>
<g>
</g>
<g>
</g>
<g>
</g>
<g>
</g>
<g>
</g>
<g>
</g>
<g>
</g>
<g>
</g>
<g>
</g>
<g>
</g>
<g>
</g>
</svg>
